nColumns=19
nRows=44
DataType=double
version=3
OpenSimVersion=4.1
endheader
time	ground_force_calcn_r_vx	ground_force_calcn_r_vy	ground_force_calcn_r_vz	ground_force_calcn_r_px	ground_force_calcn_r_py	ground_force_calcn_r_pz	ground_force_calcn_r_mx	ground_force_calcn_r_my	ground_force_calcn_r_mz	ground_force_calcn_l_vx	ground_force_calcn_l_vy	ground_force_calcn_l_vz	ground_force_calcn_l_px	ground_force_calcn_l_py	ground_force_calcn_l_pz	ground_force_calcn_l_mx	ground_force_calcn_l_my	ground_force_calcn_l_mz
0.083333	-4.80687	12.7191	-1.04887	0.842052	0	-0.103636	0.494099	-1.3074	0.107814	0	0	0	0	0	0	0	0	0
0.091667	-13.5248	29.6095	-4.4892	0.838623	0	-0.249796	0.049422	-0.108198	0.0164043	0	0	0	0	0	0	0	0	0
0.1	-33.5791	84.7638	-9.72973	0.869227	0	-0.30177	-0.235951	0.595612	-0.0683682	0	0	0	0	0	0	0	0	0
0.108333	-69.9166	217.948	-15.4402	0.886103	0	-0.316705	-0.213705	0.666171	-0.0471939	0	0	0	0	0	0	0	0	0
0.116667	-115.341	458.605	-17.9794	0.890251	0	-0.321523	0.0160817	-0.0639421	0.00250682	0	0	0	0	0	0	0	0	0
0.125	-151.972	766.197	-13.8388	0.885171	0	-0.322574	0.296545	-1.49509	0.0270039	0	0	0	0	0	0	0	0	0
0.133333	-170.603	1040.34	-4.55927	0.873392	0	-0.322275	0.534767	-3.26104	0.0142914	0	0	0	0	0	0	0	0	0
0.141667	-186.013	1230.04	2.54815	0.85698	0	-0.322005	0.735387	-4.86287	-0.0100739	0	0	0	0	0	0	0	0	0
0.15	-210.772	1362.45	1.57138	0.838704	0	-0.32235	0.906481	-5.85958	-0.00675812	0	0	0	0	0	0	0	0	0
0.158333	-229.645	1478.59	-5.77799	0.819298	0	-0.322423	0.935698	-6.02457	0.0235426	0	0	0	0	0	0	0	0	0
0.166667	-224.084	1590.38	-13.8539	0.797038	0	-0.321279	0.752409	-5.34002	0.0465174	0	0	0	0	0	0	0	0	0
0.175	-191.03	1684.15	-20.3541	0.771739	0	-0.319392	0.444967	-3.9229	0.047411	0	0	0	0	0	0	0	0	0
0.183333	-139.491	1743.76	-26.7561	0.745261	0	-0.317582	0.160279	-2.00364	0.0307436	0	0	0	0	0	0	0	0	0
0.191667	-83.2895	1763.07	-33.6546	0.719486	0	-0.315882	-0.004652	0.0984734	-0.00187972	0	0	0	0	0	0	0	0	0
0.2	-29.89	1743.06	-39.0654	0.694725	0	-0.313904	-0.0349287	2.03689	-0.0456508	0	0	0	0	0	0	0	0	0
0.208333	18.6744	1685.17	-40.9291	0.669962	0	-0.311665	0.0388873	3.50918	-0.0852304	0	0	0	0	0	0	0	0	0
0.216667	63.7111	1591.18	-38.9109	0.64413	0	-0.309626	0.172482	4.30772	-0.105342	0	0	0	0	0	0	0	0	0
0.225	107.013	1467.97	-33.3957	0.617083	0	-0.308243	0.317001	4.34852	-0.0989272	0	0	0	0	0	0	0	0	0
0.233333	145.709	1324.67	-24.2204	0.589774	0	-0.307508	0.405492	3.68641	-0.0674029	0	0	0	0	0	0	0	0	0
0.241667	176.979	1166.19	-11.4658	0.56287	0	-0.306997	0.380703	2.50861	-0.0246643	0	0	0	0	0	0	0	0	0
0.25	198.881	993.977	2.83442	0.536375	0	-0.30646	0.219468	1.09687	0.00312782	0	0	0	0	0	0	0	0	0
0.258333	207.249	811.289	14.9398	0.510618	0	-0.305956	-0.0612406	-0.23973	-0.00441462	0	0	0	0	0	0	0	0	0
0.266667	197.467	625.539	21.8273	0.486493	0	-0.305429	-0.396428	-1.25581	-0.0438199	0	0	0	0	0	0	0	0	0
0.275	170.862	450.052	23.051	0.46444	0	-0.304294	-0.69814	-1.83891	-0.0941864	0	0	0	0	0	0	0	0	0
0.283333	135.871	300.802	20.3488	0.443977	0	-0.301297	-0.906646	-2.00721	-0.135784	0	0	0	0	0	0	0	0	0
0.291667	99.8254	186.053	15.9756	0.424581	0	-0.295489	-1.00262	-1.86867	-0.160455	0	0	0	0	0	0	0	0	0
0.3	66.1919	105.01	11.5288	0.409131	0	-0.287021	-0.994096	-1.57708	-0.173144	0	0	0	0	0	0	0	0	0
0.308333	37.9134	53.0603	7.86944	0.41357	0	-0.275694	-0.912793	-1.27746	-0.189463	0	0	0	0	0	0	0	0	0
0.316667	18.4619	24.3772	5.41911	0.482445	0	-0.252815	-0.798601	-1.05448	-0.234414	0	0	0	0	0	0	0	0	0
0.325	8.5965	12.0016	4.17356	0.652651	0	-0.183214	-0.665029	-0.928449	-0.322869	0	0	0	0	0	0	0	0	0
0.333333	0	0	0	0	0	0	0	0	0	0	0	0	0	0	0	0	0	0
0.341667	0	0	0	0	0	0	0	0	0	0	0	0	0	0	0	0	0	0
0.35	0	0	0	0	0	0	0	0	0	0	0	0	0	0	0	0	0	0
0.358333	0	0	0	0	0	0	0	0	0	0	0	0	0	0	0	0	0	0
0.366667	0	0	0	0	0	0	0	0	0	0	0	0	0	0	0	0	0	0
0.375	0	0	0	0	0	0	0	0	0	0	0	0	0	0	0	0	0	0
0.383333	0	0	0	0	0	0	0	0	0	0	0	0	0	0	0	0	0	0
0.391667	0	0	0	0	0	0	0	0	0	0	0	0	0	0	0	0	0	0
0.4	0	0	0	0	0	0	0	0	0	0	0	0	0	0	0	0	0	0
0.408333	0	0	0	0	0	0	0	0	0	-4.48545	16.7073	1.31855	0.792823	0	-0.205435	0.314669	-1.17207	-0.0925003
0.416667	0	0	0	0	0	0	0	0	0	-17.8757	44.0387	0.27426	0.827481	0	-0.301381	0.789203	-1.94429	-0.0121084
0.425	0	0	0	0	0	0	0	0	0	-44.0578	116.727	-0.25728	0.857624	0	-0.344573	1.1139	-2.95118	0.00650473
0.433333	0	0	0	0	0	0	0	0	0	-78.2142	271.928	0.454085	0.875143	0	-0.358621	1.14894	-3.99454	-0.00667038
0.441667	0	0	0	0	0	0	0	0	0	-107.764	526.286	1.71348	0.882057	0	-0.359655	0.952718	-4.65279	-0.0151485
